<svg xmlns="http://www.w3.org/2000/svg" viewBox="13.12 11 740.88 1819">
<g fill="rgb(255,255,255)">
<g>
<path d="M368 1819 c-10 -5 -31 -30 -48 -54 -17 -24 -61 -78 -99 -118 -38 -42 -72 -87 -75 -103 -20 -96 -100 -624 -131 -869 -6 -49 -4 -53 106 -250 61 -110 135 -248 165 -307 l54 -107 59 62 c33 34 70 76 82 92 40 53 132 168 203 253 l70 84 -38 301 c-20 166 -51 401 -67 522 l-31 219 -115 143 c-64 79 -116 143 -117 143 0 0 -9 -5 -18 -11z m50 -96 c17 -57 20 -61 15 -24 -8 58 4 51 99 -62 l74 -88 17 -137 c9 -75 37 -294 62 -487 49 -380 50 -395 34 -395 -21 0 -189 116 -189 130 0 9 -4 20 -9 25 -4 6 -14 143 -20 305 -18 415 -27 558 -41 613 -16 61 -23 55 -11 -9 6 -27 20 -248 32 -492 l21 -444 -28 -29 c-39 -41 -56 -37 -87 24 -14 28 -49 94 -77 146 l-51 94 11 131 c45 521 60 655 80 710 12 31 27 56 34 56 7 0 22 -30 34 -67z m-107 -90 c-6 -43 -20 -184 -31 -313 -36 -421 -40 -451 -66 -497 -26 -45 -150 -163 -172 -163 -10 0 -12 11 -8 43 22 159 71 494 99 664 l32 203 73 77 c39 42 75 74 78 70 4 -3 1 -41 -5 -84z m20 -894 c93 -167 93 -142 13 -636 -7 -48 -25 -33 -73 65 -24 48 -88 167 -142 264 -54 98 -99 182 -99 187 0 5 33 37 74 72 40 35 88 85 106 112 18 26 39 47 46 47 7 0 40 -50 75 -111z m292 -165 c59 -37 107 -71 107 -76 0 -6 -40 -58 -88 -117 -48 -58 -117 -142 -152 -186 -86 -107 -103 -125 -119 -125 -16 0 -14 18 31 305 30 189 33 202 62 233 16 17 35 32 41 32 6 0 59 -30 118 -66z">
</path>
</g>
</g>
</svg>