<svg xmlns="http://www.w3.org/2000/svg" viewBox="9 10.54 637.63 1709.46">
<g fill="rgb(255,255,255)">
<g>
<path d="M186 1627 c-22 -50 -50 -114 -62 -142 -16 -35 -25 -88 -34 -180 -6 -71 -22 -218 -36 -325 -13 -107 -28 -241 -34 -297 l-11 -102 77 -146 c41 -80 78 -145 80 -145 2 0 -25 58 -61 130 -36 71 -65 136 -65 144 0 23 202 156 237 156 7 0 13 -67 17 -182 3 -101 9 -243 12 -315 5 -113 4 -133 -8 -133 -8 0 -23 18 -33 40 -10 23 -22 43 -27 46 -5 3 11 -33 34 -80 41 -83 58 -103 58 -71 0 9 12 39 26 68 25 48 215 364 272 449 13 20 21 41 18 47 -6 9 -88 386 -161 736 l-33 160 -106 118 c-59 64 -110 117 -114 117 -4 0 -25 -42 -46 -93z m166 -41 l84 -95 27 -133 c14 -73 36 -173 47 -223 49 -211 100 -459 100 -486 0 -34 -9 -32 -90 19 -30 19 -87 49 -126 67 -40 18 -77 42 -83 52 -20 39 -52 383 -66 736 -6 132 -4 157 7 157 8 0 53 -42 100 -94z m-122 -63 c0 -165 16 -395 37 -553 10 -69 17 -147 18 -175 l0 -49 -115 -68 c-63 -37 -121 -68 -127 -68 -18 0 -16 36 11 243 14 100 34 272 46 382 20 183 26 209 64 307 22 60 47 108 54 108 9 0 12 -32 12 -127z m188 -813 c99 -47 202 -117 202 -138 0 -10 -52 -104 -116 -208 -63 -104 -125 -206 -137 -226 -39 -70 -43 -54 -50 189 -4 124 -7 268 -7 320 0 90 1 93 23 93 12 0 50 -13 85 -30z">
</path>
</g>
</g>
</svg>