<svg xmlns="http://www.w3.org/2000/svg" viewBox="60 41.25 548 1633.02">
<g fill="rgb(255,255,255)">
<g>
<path d="M276 1567 c-40 -62 -76 -122 -79 -133 -11 -35 -137 -791 -137 -821 0 -37 52 -144 179 -366 55 -98 101 -185 101 -193 0 -26 24 -9 31 22 6 27 91 227 194 454 l43 95 -13 95 c-8 52 -26 199 -40 325 -41 368 -45 385 -118 513 -34 61 -68 114 -75 116 -8 4 -40 -36 -86 -107z m74 -110 c0 -230 -31 -503 -65 -573 -14 -29 -32 -55 -40 -58 -8 -3 -15 -14 -15 -24 0 -11 -12 -37 -26 -58 -19 -28 -21 -34 -7 -21 43 38 46 31 91 -256 24 -149 46 -284 49 -299 4 -21 2 -28 -10 -28 -24 0 -247 401 -247 443 0 14 20 41 52 70 47 43 40 41 -28 -8 -7 -5 -16 -6 -20 -2 -4 4 14 130 39 279 99 578 82 511 154 626 68 109 73 102 73 -91z m76 100 c15 -29 35 -65 44 -82 9 -16 20 -52 24 -80 42 -310 86 -686 84 -719 l-3 -41 -25 26 c-14 15 -67 88 -118 163 -106 157 -103 145 -77 366 8 69 15 193 15 277 0 172 6 181 56 90z m31 -783 c59 -86 112 -162 118 -169 6 -10 -5 -44 -37 -112 -26 -54 -72 -158 -103 -230 -57 -133 -85 -166 -85 -102 0 17 -18 138 -40 270 -22 131 -42 260 -44 286 -2 26 -7 56 -12 67 -4 11 -2 26 4 35 6 9 24 37 38 64 15 26 33 47 40 47 7 0 62 -70 121 -156z">
</path>
</g>
</g>
</svg>