<svg xmlns="http://www.w3.org/2000/svg" viewBox="9 18.43 710.58 1834.69">
<g fill="rgb(255,255,255)">
<g>
<path d="M354 1848 c-4 -7 -14 -24 -23 -37 -15 -23 -15 -24 8 -12 l22 12 -5 -68 c-8 -87 -23 -403 -32 -648 -8 -219 -18 -256 -87 -318 -51 -47 -166 -117 -191 -117 -14 0 -17 5 -12 23 3 12 20 101 36 197 17 96 48 272 70 391 22 119 40 227 40 239 0 12 17 52 38 88 80 138 103 182 98 182 -9 0 -133 -216 -144 -251 -6 -19 -38 -194 -72 -389 -33 -195 -68 -389 -76 -432 l-15 -76 146 -216 c81 -119 148 -216 151 -216 2 0 -56 91 -131 202 -122 183 -152 238 -126 238 4 0 52 29 106 65 53 36 100 65 103 65 4 0 19 -53 33 -118 15 -64 34 -133 43 -152 9 -19 14 -26 10 -15 -3 11 -20 83 -36 160 l-31 140 23 53 c14 33 29 52 39 52 9 0 82 -48 161 -106 80 -59 155 -111 168 -117 13 -6 22 -19 22 -32 0 -13 -50 -128 -111 -256 -61 -129 -115 -244 -120 -256 -14 -38 -39 -29 -39 15 0 74 -66 373 -69 315 -1 -6 3 -23 9 -37 11 -29 50 -264 50 -301 0 -31 -22 -32 -44 -3 -9 13 -5 3 9 -22 41 -72 43 -75 47 -70 3 3 67 138 143 300 76 162 142 299 146 305 19 20 11 81 -71 505 -27 140 -56 294 -64 342 -17 97 -31 130 -116 259 -33 50 -60 95 -60 100 0 16 -38 30 -46 17z m104 -135 c31 -49 64 -106 74 -128 9 -22 32 -128 52 -235 20 -107 51 -276 70 -375 45 -235 53 -305 35 -304 -23 0 -286 188 -331 235 l-27 29 9 175 c18 336 30 605 30 648 0 65 23 53 88 -45z">
</path>
</g>
</g>
</svg>