<svg xmlns="http://www.w3.org/2000/svg" viewBox="20.12 17.48 671.88 1652.52">
<g fill="rgb(255,255,255)">
<g>
<path d="M277 1551 c-64 -65 -118 -129 -121 -142 -3 -13 -28 -150 -56 -304 -28 -154 -58 -311 -65 -350 -24 -112 -21 -139 24 -198 22 -29 76 -110 121 -182 70 -111 106 -165 88 -130 -26 50 -155 262 -187 308 -23 32 -41 60 -41 63 0 20 202 125 215 112 13 -13 105 -526 105 -583 0 -33 -1 -35 -16 -21 -25 25 -27 19 -6 -16 11 -18 29 -48 39 -65 20 -33 33 -34 33 -3 0 9 28 64 63 121 35 57 98 166 141 241 l78 137 -22 338 c-11 186 -23 378 -27 426 l-6 88 -66 83 c-82 102 -164 196 -172 196 -3 0 -58 -53 -122 -119z m246 -36 l94 -116 7 -72 c3 -40 12 -175 21 -302 8 -126 17 -260 20 -297 6 -79 -9 -91 -44 -35 -20 32 -158 172 -218 222 -18 15 -33 32 -33 37 0 6 -7 16 -15 22 -14 10 -14 32 -5 181 10 177 28 387 36 443 9 58 36 41 137 -83z m-153 83 c0 -7 -6 -78 -14 -158 -8 -80 -20 -229 -26 -332 -10 -163 -15 -197 -39 -261 -33 -88 -48 -105 -121 -137 -30 -13 -67 -32 -82 -42 -34 -23 -48 -23 -48 2 0 12 21 132 46 268 25 136 55 301 66 367 l21 120 85 93 c79 86 112 109 112 80z m92 -752 c136 -120 190 -196 204 -284 6 -36 -2 -53 -122 -260 -71 -122 -135 -222 -141 -222 -15 0 -15 -2 -52 225 -17 99 -40 236 -51 305 -13 72 -20 143 -16 166 8 64 48 154 68 154 9 0 59 -38 110 -84z">
</path>
<path d="M285 200 c9 -16 18 -30 21 -30 2 0 -2 14 -11 30 -9 17 -18 30 -21 30 -2 0 2 -13 11 -30z">
</path>
</g>
</g>
</svg>