<svg xmlns="http://www.w3.org/2000/svg" viewBox="33 17.66 674.72 1632.34">
<g fill="rgb(255,255,255)">
<g>
<path d="M143 1509 l-100 -140 -7 -201 c-4 -110 -4 -289 0 -397 l7 -196 76 -105 c41 -58 108 -149 148 -202 39 -54 96 -134 125 -178 29 -44 56 -76 60 -72 3 4 15 30 26 57 11 28 66 149 122 270 56 121 104 233 107 250 6 40 -25 189 -103 490 -97 370 -86 343 -152 399 -31 27 -87 75 -125 107 -37 33 -71 59 -76 59 -5 0 -54 -63 -108 -141z m191 62 c28 -21 77 -63 109 -92 l57 -54 71 -270 c70 -267 101 -395 113 -467 10 -56 -11 -50 -99 27 -41 35 -105 85 -143 110 -41 27 -76 59 -86 78 -19 37 -60 220 -81 359 -18 120 -20 348 -3 348 6 0 34 -17 62 -39z m-94 -85 c0 -114 23 -266 71 -470 24 -102 28 -135 20 -153 -6 -13 -11 -32 -11 -42 0 -10 -10 -26 -22 -35 -23 -16 -23 -16 -1 -6 12 5 26 10 31 10 5 0 12 -35 15 -77 4 -43 22 -181 42 -308 39 -257 43 -310 21 -298 -22 13 -346 453 -346 471 0 8 79 83 160 152 l25 22 -31 -20 c-16 -12 -52 -39 -79 -61 -27 -23 -55 -41 -61 -41 -18 0 -28 259 -20 519 6 206 9 227 28 255 86 125 133 186 145 186 10 0 13 -24 13 -104z m197 -668 c28 -18 97 -73 153 -122 96 -83 102 -91 97 -120 -3 -18 -49 -126 -102 -241 -54 -116 -101 -220 -106 -232 -5 -13 -14 -23 -22 -23 -9 0 -16 29 -24 98 -7 53 -25 189 -42 302 -16 113 -33 242 -36 288 -7 76 -6 82 12 82 10 0 42 -15 70 -32z">
</path>
</g>
</g>
</svg>