<svg xmlns="http://www.w3.org/2000/svg" viewBox="11 8 690.21 1642">
<g fill="rgb(255,255,255)">
<g>
<path d="M253 1583 c-53 -60 -61 -76 -72 -133 -7 -36 -23 -99 -36 -140 -13 -41 -29 -115 -35 -165 -11 -81 -47 -323 -85 -574 l-14 -94 117 -126 c65 -69 135 -146 157 -171 21 -25 65 -73 96 -108 l58 -64 26 51 c25 50 118 205 195 326 44 69 50 111 31 235 -6 41 -20 154 -31 250 -11 96 -30 240 -42 320 l-21 145 -76 100 c-91 119 -178 215 -196 215 -6 0 -39 -30 -72 -67z m125 10 c33 -36 164 -201 185 -233 19 -30 35 -125 82 -496 19 -155 38 -295 41 -313 4 -18 2 -31 -4 -31 -15 0 -303 289 -338 340 -17 25 -45 79 -62 120 l-30 75 5 263 6 263 25 19 c34 27 60 25 90 -7z m-141 -308 l-6 -246 -41 -91 c-22 -50 -39 -93 -36 -95 2 -2 21 35 42 82 21 47 43 85 50 85 6 0 30 -48 54 -106 l42 -107 -9 -224 c-6 -183 -5 -229 6 -250 7 -15 26 -65 42 -112 32 -93 37 -144 16 -135 -8 3 -71 69 -142 147 -71 78 -149 161 -172 184 -24 24 -43 49 -43 57 0 19 38 181 50 212 5 13 6 24 2 24 -4 0 -13 -21 -20 -46 -17 -61 -22 -53 -11 16 5 30 25 170 44 310 22 156 47 294 65 355 16 55 32 119 35 143 5 29 12 42 22 42 15 0 16 -26 10 -245z m265 -613 c130 -129 147 -149 148 -173 0 -33 -114 -289 -169 -376 -26 -43 -51 -56 -51 -27 0 8 -21 77 -46 152 l-46 136 11 186 c6 102 11 193 11 203 0 34 27 15 142 -101z m178 -218 c0 -9 -70 -124 -76 -124 -2 0 11 29 28 65 28 56 48 81 48 59z">
</path>
</g>
</g>
</svg>