<svg xmlns="http://www.w3.org/2000/svg" viewBox="9.87 18 624.13 1852">
<g fill="rgb(255,255,255)">
<g>
<path d="M219 1843 c-38 -42 -174 -233 -166 -233 3 0 38 47 78 105 41 57 79 105 85 105 8 0 13 -58 17 -177 3 -98 11 -282 18 -409 6 -127 9 -247 5 -267 -7 -37 -155 -283 -183 -305 -14 -10 -18 -10 -24 1 -10 16 -31 885 -23 899 4 7 2 8 -4 4 -16 -9 -16 -350 -1 -714 l11 -273 30 -54 c37 -70 47 -72 12 -4 -14 29 -23 60 -21 71 9 34 180 298 194 298 7 0 13 -6 13 -12 0 -29 31 -504 41 -631 6 -77 9 -141 7 -142 -11 -11 -33 25 -102 162 -42 84 -79 153 -81 153 -3 0 40 -90 96 -201 l102 -201 12 33 c12 33 121 274 243 538 l56 123 -51 410 -52 409 -67 85 c-36 47 -91 111 -121 142 l-55 57 59 -70 c114 -135 151 -185 162 -217 10 -31 101 -716 101 -760 0 -32 -25 -20 -174 83 -102 71 -135 99 -136 115 0 12 -6 24 -13 27 -8 3 -13 36 -15 108 -1 57 -9 234 -17 394 -19 372 -20 338 11 332 l25 -4 -22 23 c-12 13 -23 24 -24 24 -1 0 -13 -12 -26 -27z m246 -1025 c93 -66 145 -109 145 -121 0 -10 -14 -46 -31 -80 -18 -34 -47 -98 -66 -142 -77 -180 -167 -365 -178 -365 -9 0 -14 39 -19 128 -4 70 -14 219 -22 331 -7 112 -14 240 -14 283 0 76 1 80 20 75 11 -3 86 -52 165 -109z">
</path>
</g>
</g>
</svg>