<svg xmlns="http://www.w3.org/2000/svg" viewBox="9 15.97 683.63 1573.03">
<g fill="rgb(255,255,255)">
<g>
<path d="M185 1507 c-53 -74 -60 -89 -66 -147 -26 -230 -91 -777 -100 -840 l-10 -75 222 -217 c123 -119 227 -214 231 -212 4 3 8 17 8 32 1 15 7 38 15 52 8 14 14 29 15 33 0 11 -25 -15 -33 -33 -7 -16 2 246 9 268 2 8 -9 60 -25 115 -39 132 -48 187 -31 187 17 0 250 -123 250 -132 0 -4 -27 -66 -60 -139 -33 -73 -59 -134 -57 -136 2 -2 30 54 62 124 33 71 64 134 71 141 9 11 9 23 -1 55 -7 23 -40 168 -74 322 -77 353 -84 378 -113 413 -46 57 -243 272 -248 271 -3 0 -32 -37 -65 -82z m207 -81 l117 -129 30 -131 c55 -237 121 -547 121 -572 0 -13 -5 -24 -10 -24 -14 0 -152 75 -207 112 -54 36 -62 53 -106 213 -44 160 -64 288 -72 468 -3 75 -8 151 -12 168 -10 52 15 33 139 -105z m-152 91 c0 -7 5 -84 10 -172 12 -189 29 -291 75 -457 19 -68 35 -139 35 -159 0 -34 -5 -40 -67 -80 -37 -24 -105 -72 -150 -106 -92 -70 -118 -79 -109 -36 3 16 19 147 36 293 72 644 69 629 109 682 35 46 61 61 61 35z m184 -982 l39 -135 -12 -144 c-6 -79 -11 -153 -11 -165 0 -12 -6 -21 -15 -21 -25 0 -385 345 -385 369 1 9 53 55 118 102 121 90 186 129 212 129 11 0 26 -38 54 -135z">
</path>
<path d="M527 215 c-24 -50 -20 -58 4 -12 11 22 19 41 17 43 -3 2 -12 -12 -21 -31z">
</path>
</g>
</g>
</svg>