<svg xmlns="http://www.w3.org/2000/svg" viewBox="13 23.93 727 1669.07">
<g fill="rgb(255,255,255)">
<g>
<path d="M254 1544 c-99 -165 -107 -187 -129 -359 -13 -101 -74 -488 -104 -657 l-8 -47 101 -134 c56 -73 130 -177 165 -230 35 -54 66 -95 68 -93 3 2 12 18 21 35 26 48 145 238 264 423 l108 168 -20 75 c-11 41 -47 168 -79 282 -33 115 -75 267 -94 339 -40 149 -52 177 -99 219 l-33 30 26 -30 c14 -16 31 -37 37 -47 7 -9 33 -90 57 -180 24 -89 71 -261 104 -380 33 -120 64 -236 67 -258 l7 -40 -39 1 c-59 2 -89 13 -92 34 -1 11 -9 45 -17 75 -8 30 -19 98 -26 150 -16 144 -53 319 -104 495 -50 174 -51 182 -31 187 10 2 4 16 -23 47 l-38 44 -89 -149z m123 39 c7 -27 28 -106 48 -178 40 -147 81 -333 90 -415 4 -30 16 -109 27 -174 11 -66 18 -135 16 -153 -3 -22 -1 -30 6 -23 11 11 95 14 120 4 9 -3 16 -12 16 -18 0 -19 -277 -458 -295 -468 -13 -8 -15 8 -15 132 l0 141 47 52 c88 97 98 112 29 45 -38 -38 -74 -68 -82 -68 -20 0 -80 136 -105 236 -12 49 -26 97 -31 107 -5 10 -7 26 -4 35 2 9 7 55 10 102 4 47 20 176 36 285 17 110 35 246 42 303 7 58 17 102 23 102 5 0 16 -21 22 -47z m-76 -171 c-33 -211 -59 -412 -66 -510 -6 -100 -26 -160 -74 -221 -32 -42 -44 -61 -37 -61 2 0 26 29 52 65 26 36 53 65 59 65 6 0 21 -33 34 -73 13 -39 43 -115 66 -167 l44 -95 -9 -170 c-5 -93 -9 -171 -10 -172 0 -2 -8 -3 -17 -3 -11 0 -37 28 -63 67 -25 37 -89 125 -142 196 -54 72 -98 137 -98 145 0 8 15 35 33 61 40 54 50 71 43 71 -2 0 -14 -16 -26 -35 -19 -31 -50 -48 -50 -27 0 4 22 144 49 312 28 168 57 355 66 415 16 104 20 116 75 210 33 55 65 107 72 115 22 25 21 -47 -1 -188z">
</path>
</g>
</g>
</svg>