<svg xmlns="http://www.w3.org/2000/svg" viewBox="22.9 20 681.35 1670">
<g fill="rgb(255,255,255)">
<g>
<path d="M269 1612 c-116 -159 -103 -116 -176 -563 -78 -478 -78 -479 -61 -502 11 -15 13 -8 10 48 -3 58 -2 65 15 65 43 0 224 -154 255 -216 14 -27 46 -330 36 -339 -9 -10 -33 21 -153 205 -70 107 -132 200 -138 205 -16 16 -2 -7 136 -220 71 -109 137 -216 148 -237 11 -21 24 -38 29 -38 5 0 19 19 31 42 12 24 43 76 69 118 54 88 68 113 45 85 -8 -11 -39 -59 -68 -107 -29 -48 -57 -88 -63 -88 -10 0 -21 79 -40 312 l-7 77 71 73 c39 41 95 89 125 108 46 29 53 37 46 55 -4 11 -15 88 -23 170 -9 83 -27 238 -42 345 -14 107 -28 215 -31 240 l-5 45 34 -37 c32 -34 36 -47 52 -145 10 -59 40 -233 67 -387 28 -153 49 -287 47 -299 -3 -19 -5 -19 -38 8 l-35 29 31 -35 c55 -59 54 -67 -27 -202 -82 -140 -86 -146 -72 -132 6 6 46 69 90 141 56 91 80 138 77 155 -2 13 -19 112 -39 219 -19 107 -50 287 -69 400 -28 160 -40 211 -58 235 -12 16 -36 51 -53 76 -40 60 -137 169 -150 169 -5 -1 -35 -35 -66 -78z m134 -5 c42 -48 46 -59 61 -147 31 -191 86 -648 86 -722 l0 -75 -37 -26 c-21 -15 -63 -51 -93 -82 -30 -30 -60 -55 -66 -55 -17 0 -22 64 -35 469 -14 413 -3 691 27 691 7 0 33 -24 57 -53z m-101 -217 c-3 -126 1 -376 8 -556 6 -179 9 -328 5 -332 -7 -7 -1 -11 -144 98 -128 97 -121 78 -92 257 11 65 36 219 55 343 20 124 39 235 41 247 7 31 104 173 119 173 9 0 11 -52 8 -230z">
</path>
</g>
</g>
</svg>