<svg viewBox="0 0 300 280" xmlns="http://www.w3.org/2000/svg">
    <!-- Crystal 1/1 -->
    <g id="crystal_1_1">
        <path d="M 25 2 L 38 20 L 32 35 L 40 48 L 25 68 L 10 50 L 16 34 L 8 22 Z" 
              fill="none" stroke="white" stroke-width="1.2" stroke-linejoin="round"/>
        <path d="M 25 2 L 24 35 M 38 20 L 24 35 M 8 22 L 24 35" 
              fill="none" stroke="white" stroke-width="1.2"/>
        <path d="M 16 34 L 32 35 M 10 50 L 24 35 M 40 48 L 24 35" 
              fill="none" stroke="white" stroke-width="1.2"/>
    </g>

    <!-- Crystal 1/3 -->
    <g id="crystal_1_3" transform="translate(50,0)">
        <path d="M 26 4 L 38 20 L 35 50 L 22 66 L 12 48 L 15 22 Z" 
              fill="none" stroke="white" stroke-width="1.2" stroke-linejoin="round"/>
        <path d="M 26 4 L 31 15 M 38 20 L 31 15 M 15 22 L 31 15" 
              fill="none" stroke="white" stroke-width="1.2"/>
        <path d="M 22 66 L 27 55 M 35 50 L 27 55 M 12 48 L 27 55" 
              fill="none" stroke="white" stroke-width="1.2"/>
        <path d="M 31 15 L 27 55" fill="none" stroke="white" stroke-width="1.2"/>
    </g>

    <!-- Crystal 1/5 -->
    <g id="crystal_1_5" transform="translate(150,0)">
        <path d="M 27 4 L 33 19 L 37 51 L 23 66 L 17 50 L 13 21 Z" 
              fill="none" stroke="white" stroke-width="1.2" stroke-linejoin="round"/>
        <path d="M 27 4 L 25 14 L 13 21 M 23 66 L 27 57 L 37 51" 
              fill="none" stroke="white" stroke-width="1.2"/>
        <path d="M 33 19 L 27 57 M 25 14 L 27 57 M 17 50 L 27 57" 
              fill="none" stroke="white" stroke-width="1.2"/>
    </g>

    <!-- Crystal 2/2 -->
    <g id="crystal_2_2" transform="translate(0,70)">
        <path d="M 24 4 L 37 22 L 31 36 L 39 50 L 25 66 L 11 49 L 17 33 L 10 21 Z" 
              fill="none" stroke="white" stroke-width="1.2" stroke-linejoin="round"/>
        <path d="M 24 4 L 26 35 M 37 22 L 26 35 M 10 21 L 26 35" 
              fill="none" stroke="white" stroke-width="1.2"/>
        <path d="M 17 33 L 31 36 M 11 49 L 26 35 M 39 50 L 26 35" 
              fill="none" stroke="white" stroke-width="1.2"/>
    </g>

    <!-- Crystal 2/4 -->
    <g id="crystal_2_4" transform="translate(100,70)">
        <path d="M 26 4 L 32 21 L 36 53 L 22 66 L 18 52 L 14 23 Z" 
              fill="none" stroke="white" stroke-width="1.2" stroke-linejoin="round"/>
        <path d="M 26 4 L 24 16 L 14 23 M 22 66 L 26 59 L 36 53" 
              fill="none" stroke="white" stroke-width="1.2"/>
        <path d="M 32 21 L 26 59 M 24 16 L 26 59 M 18 52 L 26 59" 
              fill="none" stroke="white" stroke-width="1.2"/>
    </g>

    <!-- Crystal 3/3 -->
    <g id="crystal_3_3" transform="translate(150,70)">
        <path d="M 28 5 L 38 24 L 35 50 L 23 67 L 12 49 L 15 23 Z" 
              fill="none" stroke="white" stroke-width="1.2" stroke-linejoin="round"/>
        <path d="M 28 5 L 32 19 M 38 24 L 32 19 M 15 23 L 32 19" 
              fill="none" stroke="white" stroke-width="1.2"/>
        <path d="M 23 67 L 27 51 M 35 50 L 27 51 M 12 49 L 27 51" 
              fill="none" stroke="white" stroke-width="1.2"/>
        <path d="M 32 19 L 27 51" fill="none" stroke="white" stroke-width="1.2"/>
    </g>

    <!-- Crystal 3/5 -->
    <g id="crystal_3_5" transform="translate(250,70)">
        <path d="M 24 3 L 30 23 L 34 55 L 20 66 L 20 54 L 16 25 Z" 
              fill="none" stroke="white" stroke-width="1.2" stroke-linejoin="round"/>
        <path d="M 24 3 L 22 18 L 16 25 M 20 66 L 24 61 L 34 55" 
              fill="none" stroke="white" stroke-width="1.2"/>
        <path d="M 30 23 L 24 61 M 22 18 L 24 61 M 20 54 L 24 61" 
              fill="none" stroke="white" stroke-width="1.2"/>
    </g>

</svg>